HIERARCHY
ROOT Hips
{
	OFFSET 0.000000 0.000000 0.000000
	CHANNELS 6 Xposition Yposition Zposition Zrotation Yrotation Xrotation 
	JOINT LowerBack
	{
		OFFSET 0.000000 0.000000 0.000000
		CHANNELS 3 Zrotation Yrotation Xrotation
		JOINT Spine
		{
			OFFSET 0.028270 2.035590 -0.193380
			CHANNELS 3 Zrotation Yrotation Xrotation
			JOINT Spine1
			{
				OFFSET 0.056720 2.048850 -0.042750
				CHANNELS 3 Zrotation Yrotation Xrotation
				JOINT Neck
				{
					OFFSET 0.000000 0.000000 0.000000
					CHANNELS 3 Zrotation Yrotation Xrotation
					JOINT Neck1
					{
						OFFSET -0.054170 1.746240 0.172020
						CHANNELS 3 Zrotation Yrotation Xrotation
						JOINT Head
						{
							OFFSET 0.104070 1.761360 -0.123970
							CHANNELS 3 Zrotation Yrotation Xrotation
							End Site
							{
								OFFSET 0.000000 0.000000 0.000000
							}
						}
					}
				}
				JOINT LeftShoulder
				{
					OFFSET 0.000000 0.000000 0.000000
					CHANNELS 3 Zrotation Yrotation Xrotation
					JOINT LeftArm
					{
						OFFSET 3.362410 1.200890 -0.311210
						CHANNELS 3 Zrotation Yrotation Xrotation
						JOINT LeftForeArm
						{
							OFFSET 4.983000 -0.000000 -0.000000
							CHANNELS 3 Zrotation Yrotation Xrotation
							JOINT LeftHand
							{
								OFFSET 3.483560 -0.000000 -0.000000
								CHANNELS 3 Zrotation Yrotation Xrotation
								JOINT LeftFingerBase
								{
									OFFSET 0.000000 0.000000 0.000000
									CHANNELS 3 Zrotation Yrotation Xrotation
									JOINT LeftHandIndex1
									{
										OFFSET 0.715260 -0.000000 -0.000000
										CHANNELS 3 Zrotation Yrotation Xrotation
										End Site
										{
											OFFSET 0.000000 0.000000 0.000000
										}
									}
								}
								JOINT LThumb
								{
									OFFSET 0.000000 0.000000 0.000000
									CHANNELS 3 Zrotation Yrotation Xrotation
									End Site
									{
										OFFSET 0.000000 0.000000 0.000000
									}
								}
							}
						}
					}
				}
				JOINT RightShoulder
				{
					OFFSET 0.000000 0.000000 0.000000
					CHANNELS 3 Zrotation Yrotation Xrotation
					JOINT RightArm
					{
						OFFSET -3.136600 1.374050 -0.404650
						CHANNELS 3 Zrotation Yrotation Xrotation
						JOINT RightForeArm
						{
							OFFSET -5.241900 -0.000000 -0.000000
							CHANNELS 3 Zrotation Yrotation Xrotation
							JOINT RightHand
							{
								OFFSET -3.444170 -0.000000 -0.000000
								CHANNELS 3 Zrotation Yrotation Xrotation
								JOINT RightFingerBase
								{
									OFFSET 0.000000 0.000000 0.000000
									CHANNELS 3 Zrotation Yrotation Xrotation
									JOINT RightHandIndex1
									{
										OFFSET -0.622530 -0.000000 -0.000000
										CHANNELS 3 Zrotation Yrotation Xrotation
										End Site
										{
											OFFSET 0.000000 0.000000 0.000000
										}
									}
								}
								JOINT RThumb
								{
									OFFSET 0.000000 0.000000 0.000000
									CHANNELS 3 Zrotation Yrotation Xrotation
									End Site
									{
										OFFSET 0.000000 0.000000 0.000000
									}
								}
							}
						}
					}
				}
			}
		}
	}
}
}
MOTION
Frames: 14
Frame Time: 0.008333
26.176811 15.445147 3.122216 -134.751996 -79.314242 159.414772 -0.711601 1.358224 9.192914 -1.112970 1.690957 -1.369419 -6.322114 1.684298 -0.668026 10.374778 -7.398911 -10.397357 -2.516448 -0.126408 -1.213727 0.000000 0.000000 0.000000 0.605145 18.122538 3.402571 -74.067827 24.780000 12.292093 -1.065908 -67.493661 0.003061 -2.492131 2.066537 -0.044116 0.020018 0.050022 -0.000000 0.000000 0.000000 0.000000 0.000000 0.000000 0.000000 11.004593 0.793386 0.691289 62.358274 14.459771 12.698430 0.038097 87.611171 -0.009068 -2.012849 3.456341 -0.069494 0.065556 -0.423042 -0.000000 0.000000 0.000000 0.000000 0.000000 0.000000 0.000000 
26.038475 15.435993 3.141913 -133.795098 -79.320834 158.465168 -0.836884 1.331376 9.160022 -1.148561 1.665210 -1.377696 -6.370731 1.660157 -0.677045 10.488163 -7.470527 -10.410882 -2.519134 -0.126191 -1.218196 0.000000 0.000000 0.000000 0.623944 18.073917 3.393852 -73.958628 24.432594 12.113220 -1.059243 -67.698942 0.003048 -2.387304 2.107128 -0.042998 0.018246 0.052214 -0.000000 0.000000 0.000000 0.000000 0.000000 0.000000 0.000000 11.092677 0.728249 0.688184 62.667966 14.255384 12.891803 0.027258 87.800196 -0.007980 -1.839376 3.502863 -0.064292 0.062362 -0.424709 0.000000 0.000000 0.000000 0.000000 0.000000 0.000000 0.000000 
25.902599 15.428683 3.160710 -132.900949 -79.339189 157.599991 -0.978884 1.304559 9.127926 -1.187749 1.639402 -1.388010 -6.417765 1.635681 -0.698081 10.597241 -7.534335 -10.426862 -2.523947 -0.126066 -1.224309 0.000000 0.000000 0.000000 0.634846 17.988062 3.387652 -73.846614 24.086320 11.881947 -1.049232 -67.948945 0.003000 -2.245897 2.142427 -0.041077 0.016252 0.054815 -0.000000 0.000000 0.000000 0.000000 0.000000 0.000000 0.000000 11.182810 0.673872 0.692342 62.983224 14.017164 13.057343 0.017188 87.973543 -0.007024 -1.687982 3.565656 -0.059988 0.059487 -0.426809 -0.000000 0.000000 0.000000 0.000000 0.000000 0.000000 0.000000 
25.769045 15.423090 3.178607 -132.050834 -79.365574 156.804998 -1.134796 1.278697 9.095455 -1.229758 1.614379 -1.398132 -6.461775 1.611853 -0.721807 10.704139 -7.597368 -10.452039 -2.530339 -0.125876 -1.234132 0.000000 0.000000 0.000000 0.660082 17.894391 3.384871 -73.738794 23.698794 11.641814 -1.037880 -68.200905 0.002914 -2.072602 2.164032 -0.038253 0.013947 0.057923 -0.000000 0.000000 0.000000 0.000000 0.000000 0.000000 0.000000 11.279653 0.622446 0.701579 63.294789 13.766242 13.201765 0.008496 88.121622 -0.006250 -1.566501 3.639670 -0.056782 0.057091 -0.429189 -0.000000 0.000000 0.000000 0.000000 0.000000 0.000000 0.000000 
25.638146 15.419233 3.195484 -131.260650 -79.398537 156.092116 -1.305314 1.253453 9.062360 -1.274824 1.589773 -1.409048 -6.503345 1.588234 -0.751587 10.807323 -7.654451 -10.481371 -2.538841 -0.125748 -1.246086 0.000000 0.000000 0.000000 0.693944 17.778171 3.384957 -73.632278 23.289332 11.387341 -1.025144 -68.464079 0.002794 -1.879542 2.172583 -0.034627 0.011505 0.061476 -0.000000 0.000000 0.000000 0.000000 0.000000 0.000000 0.000000 11.383315 0.577936 0.716999 63.603479 13.504519 13.326274 0.001804 88.233078 -0.005661 -1.475512 3.722992 -0.054575 0.055198 -0.431763 -0.000000 0.000000 0.000000 0.000000 0.000000 0.000000 0.000000 
25.510099 15.416985 3.211342 -130.531676 -79.436225 155.463111 -1.488735 1.228319 9.027674 -1.322502 1.565019 -1.420530 -6.542134 1.564270 -0.785646 10.905823 -7.705279 -10.513433 -2.549357 -0.125700 -1.259669 0.000000 0.000000 0.000000 0.737513 17.641700 3.387394 -73.526337 22.857321 11.128510 -1.011664 -68.731615 0.002654 -1.677338 2.167946 -0.030700 0.009007 0.065442 -0.000000 0.000000 0.000000 0.000000 0.000000 0.000000 0.000000 11.494257 0.538780 0.738213 63.907737 13.241588 13.437632 -0.002194 88.295322 -0.005252 -1.414202 3.812282 -0.053465 0.053820 -0.434370 0.000000 0.000000 0.000000 0.000000 0.000000 0.000000 0.000000 
25.384763 15.416272 3.226340 -129.836107 -79.475379 154.885904 -1.676879 1.202481 8.992425 -1.370945 1.539272 -1.431732 -6.577916 1.539160 -0.821434 10.997764 -7.751803 -10.547331 -2.561684 -0.125734 -1.274480 0.000000 0.000000 0.000000 0.790174 17.489141 3.391257 -73.421061 22.399287 10.875447 -0.998121 -68.994522 0.002493 -1.476018 2.151277 -0.026673 0.006524 0.069774 -0.000000 0.000000 0.000000 0.000000 0.000000 0.000000 0.000000 11.611858 0.500906 0.764494 64.204393 12.989717 13.543606 -0.002843 88.296092 -0.005007 -1.379788 3.902360 -0.053357 0.052939 -0.436792 0.000000 0.000000 0.000000 0.000000 0.000000 0.000000 0.000000 
25.262330 15.416970 3.240374 -129.214517 -79.516798 154.397852 -1.873935 1.174986 8.954547 -1.421018 1.511549 -1.444230 -6.611086 1.511825 -0.862691 11.080375 -7.785794 -10.575864 -2.576160 -0.126001 -1.288182 0.000000 0.000000 0.000000 0.843947 17.304933 3.395921 -73.312031 21.940834 10.616119 -0.984313 -69.266587 0.002333 -1.286732 2.127649 -0.022846 0.004206 0.074348 -0.000000 0.000000 0.000000 0.000000 0.000000 0.000000 0.000000 11.733189 0.471000 0.796153 64.498115 12.743145 13.644897 0.000322 88.225736 -0.004881 -1.365123 3.992030 -0.053848 0.052406 -0.438922 -0.000000 0.000000 0.000000 0.000000 0.000000 0.000000 0.000000 
25.142466 15.418960 3.253693 -128.641994 -79.558193 153.970095 -2.072208 1.144806 8.915236 -1.470833 1.480835 -1.456639 -6.640973 1.481341 -0.904820 11.152192 -7.811256 -10.599886 -2.592143 -0.126441 -1.300861 0.000000 0.000000 0.000000 0.899594 17.101677 3.400478 -73.199872 21.470082 10.363642 -0.971045 -69.534240 0.002174 -1.114795 2.099417 -0.019419 0.002041 0.079117 -0.000000 0.000000 0.000000 0.000000 0.000000 0.000000 0.000000 11.856658 0.443010 0.831545 64.786107 12.514426 13.750646 0.007771 88.074778 -0.004842 -1.365172 4.076804 -0.054939 0.052155 -0.440548 -0.000000 0.000000 0.000000 0.000000 0.000000 0.000000 0.000000 
25.025142 15.422133 3.266356 -128.139708 -79.600145 153.619597 -2.271970 1.111192 8.873868 -1.520400 1.446402 -1.469956 -6.667920 1.446908 -0.950502 11.210848 -7.823389 -10.614040 -2.609779 -0.127159 -1.310724 0.000000 0.000000 0.000000 0.949486 16.867130 3.404246 -73.082254 21.006563 10.106224 -0.958022 -69.807458 0.002031 -0.965813 2.072165 -0.016494 0.000121 0.083966 -0.000000 0.000000 0.000000 0.000000 0.000000 0.000000 0.000000 11.979294 0.420536 0.870875 65.070728 12.298232 13.861575 0.019676 87.838499 -0.004847 -1.373074 4.155473 -0.056232 0.052050 -0.441580 -0.000000 0.000000 0.000000 0.000000 0.000000 0.000000 0.000000 
24.910411 15.426327 3.278865 -127.621777 -79.637978 153.255249 -2.454445 1.073050 8.835956 -1.565140 1.407228 -1.479204 -6.689928 1.407865 -0.985329 11.257010 -7.839631 -10.629882 -2.627093 -0.127811 -1.321111 0.000000 0.000000 0.000000 1.005148 16.651698 3.406370 -72.964011 20.488504 9.891109 -0.947377 -70.040725 0.001897 -0.837131 2.048822 -0.013968 -0.001801 0.088922 -0.000000 0.000000 0.000000 0.000000 0.000000 0.000000 0.000000 12.099919 0.384296 0.909672 65.341583 12.124482 13.991900 0.036267 87.512325 -0.004884 -1.387297 4.222484 -0.057627 0.052125 -0.441771 0.000000 0.000000 0.000000 0.000000 0.000000 0.000000 0.000000 
24.798242 15.431534 3.290965 -127.188394 -79.677285 152.974425 -2.634890 1.030730 8.796989 -1.608693 1.363696 -1.489810 -6.709231 1.364202 -1.025090 11.287554 -7.839349 -10.630927 -2.645777 -0.128810 -1.326896 0.000000 0.000000 0.000000 1.046279 16.397733 3.406752 -72.838235 19.992839 9.660417 -0.936759 -70.285828 0.001789 -0.733765 2.037474 -0.012044 -0.003437 0.093775 -0.000000 0.000000 0.000000 0.000000 0.000000 0.000000 0.000000 12.214563 0.355612 0.951740 65.609688 11.956041 14.127422 0.057117 87.101563 -0.004902 -1.399664 4.281988 -0.058923 0.052154 -0.441269 0.000000 0.000000 0.000000 0.000000 0.000000 0.000000 0.000000 
24.688516 15.437657 3.303146 -126.757271 -79.714436 152.690515 -2.796641 0.983819 8.763107 -1.647003 1.315502 -1.496868 -6.724073 1.315981 -1.056192 11.304505 -7.839353 -10.629789 -2.664063 -0.129807 -1.331832 0.000000 0.000000 0.000000 1.085679 16.156064 3.405010 -72.710884 19.454179 9.460143 -0.928162 -70.497425 0.001692 -0.647908 2.040184 -0.010521 -0.005081 0.098586 -0.000000 0.000000 0.000000 0.000000 0.000000 0.000000 0.000000 12.323159 0.317061 0.992871 65.864047 11.817109 14.277083 0.082022 86.609803 -0.004904 -1.410718 4.330524 -0.059922 0.052198 -0.439933 0.000000 0.000000 0.000000 0.000000 0.000000 0.000000 0.000000 
24.581056 15.444696 3.315443 -126.343440 -79.751197 152.418112 -2.940320 0.933112 8.734141 -1.680409 1.263465 -1.502168 -6.735506 1.263866 -1.084700 11.307259 -7.833233 -10.620966 -2.682586 -0.130950 -1.334215 0.000000 0.000000 0.000000 1.114887 15.905024 3.401128 -72.580760 18.899517 9.267641 -0.920530 -70.693775 0.001606 -0.577376 2.061266 -0.009396 -0.006650 0.103267 -0.000000 0.000000 0.000000 0.000000 0.000000 0.000000 0.000000 12.424145 0.275937 1.034665 66.105891 11.689750 14.432068 0.110316 86.047943 -0.004876 -1.418124 4.370087 -0.060723 0.052191 -0.437871 0.000000 0.000000 0.000000 0.000000 0.000000 0.000000 0.000000 
